<?xml version="1.0"?>
<svg xmlns="http://www.w3.org/2000/svg" xmlns:xlink="http://www.w3.org/1999/xlink" version="1.1" id="Capa_1" x="0px" y="0px" viewBox="0 0 512 512" style="enable-background:new 0 0 512 512;" xml:space="preserve" width="512px" height="512px"><g><g>
	<path d="M484.442,132.173l27.189-113.679c1.221-5.118-0.714-9.602-4.081-14.191c-3.75-3.688-9.157-5.138-14.253-3.832   L381.255,29.297c-2.527,0.663-4.858,1.957-6.722,3.781L176.068,225.017L220.1,269.05l144.333-142.657   c5.863-5.861,15.352-5.861,21.213,0c5.863,5.863,5.863,15.352,0,21.215L241.313,290.263l44.324,44.323l194.88-195.359   C482.443,137.28,483.8,134.845,484.442,132.173z" data-original="#000000" class="active-path" data-old_color="#d55122" fill="#d55122"/>
	<rect x="108.262" y="351.237" transform="matrix(0.7071 -0.7071 0.7071 0.7071 -231.2759 204.1246)" width="45" height="59.999" data-original="#000000" class="active-path" data-old_color="#d55122" fill="#d55122"/>
	<path d="M8.787,460.787c-11.715,11.713-11.717,30.709,0,42.426c11.715,11.717,30.71,11.715,42.426,0l10.607-10.607L19.392,450.18   L8.787,460.787z" data-original="#000000" class="active-path" data-old_color="#d55122" fill="#d55122"/>
	<rect x="55.23" y="404.27" transform="matrix(0.7071 -0.7071 0.7071 0.7071 -284.3088 182.1577)" width="45" height="59.999" data-original="#000000" class="active-path" data-old_color="#d55122" fill="#d55122"/>
	<path d="M146.673,238.049c-5.858-5.859-15.355-5.859-21.215,0l-21.213,21.213c-5.858,5.858-5.858,15.355,0,21.213l127.28,127.278   c5.858,5.859,15.355,5.859,21.213,0l21.213-21.213c5.858-5.858,5.858-15.355,0-21.213L146.673,238.049z" data-original="#000000" class="active-path" data-old_color="#d55122" fill="#d55122"/>
</g></g> </svg>
