<svg height="511pt" viewBox="-9 1 511 511.99998" width="511pt" xmlns="http://www.w3.org/2000/svg"><path d="m490.5 267c0 135.308594-109.691406 245-245 245s-245-109.691406-245-245 109.691406-245 245-245 245 109.691406 245 245zm0 0" fill="#ff941f"/><path d="m483.714844 241.675781c-.707032-3.316406-1.367188-6.402343-1.929688-9.214843-7.910156-39.546876-2.816406-56.386719-1.800781-59.175782 7.167969-10.414062.304687-26.203125-15.523437-26.203125h-95.152344v35.339844h65.757812c3.996094 0 7.179688 3.296875 7.066406 7.289063-.40625 14.359374 1.269532 31.011718 5.003907 49.679687 7.921875 39.617187 22.425781 96.476563-8.929688 135.242187-14.394531 17.792969-37.46875 30.175782-68.898437 37.0625v36.050782c37.699218-7.121094 73.019531-22.027344 96.371094-50.890625 40.492187-50.054688 25.882812-118.441407 18.035156-155.179688zm0 0" fill="#ebeaec"/><path d="m455.996094 332.621094c-5.699219 36.96875-28.929688 66.414062-86.6875 79.078125v36.046875c65.015625-12.28125 112.421875-46.226563 121.820312-111.476563-8.089844 14.980469-30.3125 12.691407-35.132812-3.648437zm0 0" fill="#ccccce"/><path d="m85.636719 452.652344c4.804687 4.144531 9.78125 8.09375 14.898437 11.859375h56.777344v-321.457031h-71.675781zm0 0" fill="#751d0c"/><path d="m157.3125 143.054688h71.671875v321.457031h-71.671875zm0 0" fill="#84260d"/><path d="m228.984375 143.054688h71.675781v321.457031h-71.675781zm0 0" fill="#a0391e"/><path d="m300.660156 143.054688h71.675782v321.457031h-71.675782zm0 0" fill="#bc4c2e"/><path d="m372.335938 101.652344h-286.699219c-4.046875 0-7.328125 3.28125-7.328125 7.328125v30.773437c0 4.050782 3.28125 7.332032 7.328125 7.332032h286.699219c4.046874 0 7.328124-3.28125 7.328124-7.332032v-30.773437c0-4.046875-3.28125-7.328125-7.328124-7.328125zm0 0" fill="#ebeaec"/><path d="m140.734375 124.367188c0-10.609376 6.914063-19.597657 16.480469-22.71875h-71.578125c-4.046875 0-7.328125 3.28125-7.328125 7.332031v30.773437c0 4.046875 3.28125 7.328125 7.328125 7.328125h71.578125c-9.566406-3.117187-16.480469-12.105469-16.480469-22.714843zm0 0" fill="#ccccce"/><path d="m91.484375 457.523438c42.082031 34.0625 95.660156 54.476562 154.015625 54.476562 50.34375 0 97.136719-15.191406 136.054688-41.230469l-.625-6.160156c-.734376-4.097656-4.296876-7.082031-8.460938-7.082031h-280.984375zm0 0" fill="#dad9dd"/><path d="m145.191406 490.585938c-9.164062-10.527344-4.71875-28.53125 9.074219-33.058594h-62.78125c16.308594 13.199218 34.335937 24.351562 53.707031 33.058594zm0 0" fill="#ccccce"/><path d="m374.078125 233.648438h-290.183594c-7.527343 0-13.628906-6.101563-13.628906-13.628907 0-7.527343 6.101563-13.628906 13.628906-13.628906h290.183594c7.527344 0 13.628906 6.101563 13.628906 13.628906 0 7.527344-6.101562 13.628907-13.628906 13.628907zm0 0" fill="#cc523a"/><path d="m374.078125 398.21875h-290.183594c-7.527343 0-13.628906-6.101562-13.628906-13.628906s6.101563-13.632813 13.628906-13.632813h290.183594c7.527344 0 13.628906 6.105469 13.628906 13.632813s-6.101562 13.628906-13.628906 13.628906zm0 0" fill="#cc523a"/><path d="m141.9375 220.019531c0-7.527343 6.101562-13.628906 13.632812-13.628906h-71.675781c-7.527343 0-13.628906 6.101563-13.628906 13.628906 0 7.527344 6.101563 13.628907 13.628906 13.628907h71.675781c-7.53125 0-13.632812-6.101563-13.632812-13.628907zm0 0" fill="#a0391e"/><path d="m141.9375 384.589844c0-7.527344 6.101562-13.632813 13.632812-13.632813h-71.675781c-7.527343 0-13.628906 6.105469-13.628906 13.632813s6.101563 13.628906 13.628906 13.628906h71.675781c-7.53125 0-13.632812-6.101562-13.632812-13.628906zm0 0" fill="#a0391e"/><g fill="#ebeaec"><path d="m193.152344 499.335938c-5.730469 0-10.511719-4.65625-10.511719-10.511719 0-6.578125 5.984375-11.585938 12.558594-10.3125 5.042969 1.023437 8.464843 5.417969 8.464843 10.3125 0 5.785156-4.71875 10.511719-10.511718 10.511719zm0 0"/><path d="m264.820312 499.335938c-5.824218 0-10.511718-4.765626-10.511718-10.511719 0-6.496094 5.925781-11.597657 12.570312-10.3125 4.976563 1.027343 8.453125 5.332031 8.453125 10.3125 0 5.875-4.792969 10.511719-10.511719 10.511719zm0 0"/><path d="m338.550781 478.515625c-6.597656-1.28125-12.5625 3.753906-12.5625 10.308594 0 3.363281 1.582031 6.300781 4 8.214843 5.75-2.113281 11.398438-4.4375 16.9375-6.960937.050781-.410156.085938-.828125.085938-1.253906 0-4.878907-3.40625-9.285157-8.460938-10.308594zm0 0"/></g><path d="m347.949219 43.316406c-.007813 0-.011719 0-.019531 0-1.292969.003906-2.464844-.789062-2.863282-2.019531-7.726562-23.957031-30.191406-41.29296875-56.71875-41.29296875-22.511718 0-42.101562 12.48828175-52.242187 30.91406275-.679688 1.238281-2.152344 1.796875-3.496094 1.359375-4.332031-1.40625-8.980469-2.644532-13.753906-3.175782-11.460938-1.285156-22.097657 2.40625-30.015625 9.636719-1.140625 1.039063-2.871094 1.039063-4.007813 0-7.921875-7.230469-18.453125-8.632812-30.019531-8.632812-22.402344 0-40.9375 16.53125-44.078125 38.0625-.285156 1.9375-2.332031 3.097656-4.113281 2.285156-3.855469-1.746094-8.21875-2.566406-12.808594-2.167969-12.332031 1.074219-22.246094 11.132813-23.160156 23.476563-.585938 7.9375 2.46875 15.167969 7.65625 20.214843v-1.988281c0-4.046875 3.28125-7.328125 7.328125-7.328125h34.339843c.019532-.054687.046876-.105468.066407-.160156.046875.054688.09375.105469.136719.160156h252.15625c2.074218 0 3.945312.867188 5.28125 2.25 5.179687-6.484375 8.28125-14.703125 8.28125-23.648437 0-20.953125-16.992188-37.945313-37.949219-37.945313zm0 0" fill="#f9d987"/><path d="m241.1875 76.824219c4.238281-2.25 8.777344-3.855469 13.144531-5.136719 1.359375-.402344 2.257813-1.691406 2.121094-3.101562-3.191406-32.828126 20.640625-61.265626 52.242187-65.003907-27.25-9.90625-58.222656 1.234375-72.589843 27.335938-.679688 1.242187-2.152344 1.800781-3.496094 1.363281-16.128906-5.242188-30.914063-5.285156-43.773437 6.457031-1.136719 1.042969-2.867188 1.042969-4.007813 0-7.917969-7.230469-18.449219-8.632812-30.015625-8.632812-22.402344 0-40.941406 16.535156-44.082031 38.0625-.28125 1.9375-2.332031 3.097656-4.113281 2.289062-3.851563-1.75-8.21875-2.566406-12.808594-2.167969-12.328125 1.070313-22.242188 11.128907-23.15625 23.472657-.585938 7.9375 2.46875 15.167969 7.65625 20.214843v-1.988281c0-4.046875 3.28125-7.328125 7.328125-7.328125h34.339843c.019532-.054687.046876-.105468.066407-.160156.046875.054688.09375.105469.136719.160156h101.273437c.808594-1.257812 2.761719-16.816406 19.734375-25.835937zm0 0" fill="#ffcb37"/><path d="m210.066406 201.234375c0 9.34375-7.574218 16.917969-16.917968 16.917969s-16.917969-7.574219-16.917969-16.917969 7.574219-16.917969 16.917969-16.917969 16.917968 7.574219 16.917968 16.917969zm0 0" fill="#f9d987"/><path d="m104.558594 89.382812v19.058594c0 9.34375 7.574218 16.917969 16.917968 16.917969 9.339844 0 16.917969-7.574219 16.917969-16.917969v-19.058594zm0 0" fill="#ffcb37"/><path d="m277.738281 89.382812h-101.507812v60.652344c0 9.484375 7.757812 17.539063 17.242187 17.359375 9.191406-.171875 16.59375-7.679687 16.59375-16.914062v-15.199219c0-9.484375 7.757813-17.539062 17.242188-17.359375 9.191406.171875 16.59375 7.679687 16.59375 16.914063v4.097656c0 9.480468 7.757812 17.535156 17.242187 17.355468 9.191407-.171874 16.59375-7.679687 16.59375-16.914062 0-8.1875 6.949219-14.402344 15.128907-14.03125.367187.015625.738281.023438 1.109374.015625 9.296876-.179687 16.589844-8.105469 16.589844-17.402344v-18.574219zm0 0" fill="#f9d987"/><path d="m216.25 103.800781c0-6.867187 4.625-12.644531 10.925781-14.417969h-50.945312v60.652344c0 9.484375 7.761719 17.539063 17.242187 17.359375 9.195313-.171875 16.59375-7.679687 16.59375-16.914062v-15.199219c0-9.160156 7.242188-16.957031 16.277344-17.324219-5.871094-2.035156-10.09375-7.597656-10.09375-14.15625zm0 0" fill="#ffcb37"/></svg>