<?xml version="1.0" encoding="iso-8859-1"?>
<!-- Generator: Adobe Illustrator 21.0.0, SVG Export Plug-In . SVG Version: 6.00 Build 0)  -->
<svg xmlns="http://www.w3.org/2000/svg" xmlns:xlink="http://www.w3.org/1999/xlink" version="1.1" id="Capa_1" x="0px" y="0px" viewBox="0 0 512 512" style="enable-background:new 0 0 512 512;" xml:space="preserve" width="512" height="512">
<g>
	<path style="fill:#494970;" d="M470.731,385.015c17.187-31.209,27.822-66.658,29.902-104.616   c7.404-135.107-96.12-250.635-231.227-258.039S18.771,118.48,11.367,253.587c-2.604,47.517,8.518,92.608,29.906,131.428H470.731z"/>
	<path style="fill:#3A3A60;" d="M118.247,469.63h275.451c32.41-22.063,59.355-51.735,78.135-86.614H40.182   C58.862,417.684,85.692,447.451,118.247,469.63z"/>
	<path style="fill:#60D882;" d="M395.239,245.965L357.362,214.4c-10.206-8.505-16.106-21.103-16.106-34.387V53.654   c-22.114,0-38.436,0-60.411,0v126.359c0,13.284-5.901,25.883-16.106,34.387l-37.878,31.565   c-13.041,10.867-20.581,26.966-20.581,43.941v209.6c0,2.671,0.428,5.241,1.212,7.652c11.418,2.292,23.133,3.812,35.103,4.468   c65.797,3.606,126.944-19.104,173.227-58.951V289.906C415.82,272.931,408.28,256.833,395.239,245.965z"/>
	<path style="fill:#37C47A;" d="M256.873,289.906c0-16.975,5.719-33.074,15.612-43.941l28.732-31.565   c7.741-8.504,12.217-21.103,12.217-34.387V53.654c-10.417,0-20.673,0-32.59,0v126.359c0,13.284-5.901,25.883-16.106,34.387   l-37.878,31.565c-13.041,10.867-20.581,26.966-20.581,43.941v209.6c0,2.671,0.428,5.241,1.211,7.652   c11.418,2.292,23.133,3.812,35.103,4.468c4.787,0.262,9.546,0.369,14.28,0.356V289.906z"/>
	<circle style="fill:#FAB941;" cx="275.352" cy="131.124" r="14.05"/>
	<path style="fill:#C7D6E5;" d="M206.279,469.63H393.7c7.692-5.236,15.08-10.893,22.12-16.954V312.011H206.279V469.63z"/>
	<rect x="206.279" y="312.011" style="fill:#AEBFCE;" width="50.594" height="157.619"/>
	<g>
		<path style="fill:#37C47A;" d="M268.881,282.372c-3.497-2.52-4.288-7.399-1.767-10.896c21.643-30.023,66.235-30.018,87.872-0.001    c2.521,3.497,1.73,8.376-1.767,10.896c-3.494,2.521-8.374,1.73-10.896-1.767c-15.406-21.371-47.144-21.365-62.546,0.001    C277.256,284.101,272.379,284.893,268.881,282.372z"/>
	</g>
	<g>
		<path style="fill:#E2E9F2;" d="M386.387,448.366h-12.949c-4.311,0-7.805-3.495-7.805-7.805s3.494-7.805,7.805-7.805h12.949    c4.311,0,7.805,3.495,7.805,7.805S390.698,448.366,386.387,448.366z"/>
	</g>
	<path style="fill:#2BB381;" d="M342.297,16.47h-62.494c-2.44,0-4.418,1.978-4.418,4.418v29.389c0,2.44,1.978,4.418,4.418,4.418   h62.494c2.44,0,4.418-1.978,4.418-4.418V20.888C346.715,18.448,344.737,16.47,342.297,16.47z"/>
	<path style="fill:#FAD964;" d="M291.519,6.622c-0.996,1.598-3.24,1.598-4.237,0c-7.462-11.97-25.981-6.723-25.981,7.819   c0,12.989,0,53.057,0,67.831c0,7.565,5.814,14.075,13.371,14.43c8.068,0.38,14.729-6.049,14.729-14.033V64.294   c0-1.582,2.009-2.295,2.993-1.031c8.184,10.506,25.105,4.764,25.105-9.027V14.441C317.5-0.123,298.97-5.33,291.519,6.622z"/>
	<path style="fill:#FAB941;" d="M291.519,34.508c-0.996-1.598-3.24-1.598-4.236,0c-7.462,11.97-25.981,6.723-25.981-7.819   c0,17.455,0,44.123,0,55.582c0,7.565,5.814,14.075,13.371,14.43c8.068,0.38,14.729-6.049,14.729-14.033V64.294   c0-1.582,2.009-2.295,2.993-1.031c8.184,10.506,25.106,4.764,25.106-9.027V26.69C317.5,41.254,298.97,46.461,291.519,34.508z"/>
	<g>
		<path style="fill:#E2E9F2;" d="M116.119,232.682c13.65,0,13.65-8.765,27.299-8.765c13.65,0,13.65,8.765,27.3,8.765    c13.65,0,13.65-8.765,27.3-8.765c13.652,0,13.652,8.765,27.303,8.765c8.33,0,11.583-3.259,15.951-5.803l-5.354-78.304    c-0.306-4.479-4.028-7.955-8.518-7.955h-57.555h-57.555c-4.489,0-8.211,3.477-8.517,7.955l-5.292,77.398    C103.81,228.563,106.757,232.682,116.119,232.682z"/>
	</g>
	<g>
		<path style="fill:#C7D6E5;" d="M116.119,232.682c11.863,0,13.42-6.617,22.583-8.351l5.18-75.756    c0.306-4.479,4.028-7.955,8.518-7.955h-40.109c-4.489,0-8.211,3.477-8.517,7.955l-5.292,77.398    C103.81,228.563,106.757,232.682,116.119,232.682z"/>
	</g>
	<path style="fill:#FAB941;" d="M229.074,510.506V482.51h-89.686C166.502,497.205,196.774,506.963,229.074,510.506z"/>
	<path style="fill:#FAD964;" d="M243.119,253.881l-2.078-30.392c-5.709,2.439-8.334,6.857-17.841,6.857   c-13.13,0-13.13-8.43-26.259-8.43c-13.128,0-13.128,8.43-26.256,8.43c-13.128,0-13.128-8.43-26.256-8.43   c-13.128,0-13.128,8.43-26.255,8.43c-10.37,0-12.553-5.257-19.481-7.467l-2.12,31.002c-1.542,22.556,1.46,45.192,8.83,66.565l0,0   c15.385,44.619,21.408,98.723,9.591,146.921c7.802,5.501,15.943,10.563,24.394,15.143c33.507,0,75.421,0,89.687,0l0,0   c-17.317-51.574-11.867-112.521,5.215-162.064v0C241.659,299.073,244.662,276.437,243.119,253.881z"/>
	<path style="fill:#FAB941;" d="M150.727,482.51L150.727,482.51c17.318-51.575,11.867-112.521-5.215-162.064   c-15.316-44.421-6.875-76.837-6.688-97.897c-7.885,1.956-9.72,7.797-20.65,7.797c-10.37,0-12.553-5.257-19.481-7.467   c-1.96,30.475-6.747,58.537,6.71,97.567h0c15.75,45.677,21.194,99.596,9.591,146.921c7.592,5.354,15.723,10.444,24.394,15.143   C143.081,482.51,146.878,482.51,150.727,482.51z"/>
	<g>
		<path style="fill:#F6A221;" d="M175.12,276.844c-4.276,0-7.805-3.449-7.805-7.805c0-3.603,2.467-6.856,6.276-7.649    c4.674-0.942,9.325,2.595,9.325,7.649C182.915,273.313,179.451,276.844,175.12,276.844z"/>
	</g>
	<g>
		<path style="fill:#F6A221;" d="M183.102,366.896c-4.354,0-7.805-3.574-7.805-7.805c0-3.621,2.597-6.958,6.286-7.649    c4.75-0.991,9.325,2.697,9.325,7.649C190.907,363.34,187.454,366.896,183.102,366.896z"/>
	</g>
	<g>
		<path style="fill:#F6A221;" d="M149.696,314.309c-5.77,0-10.407-4.721-10.407-10.407c0-6.57,6.047-11.488,12.447-10.209    c4.847,0.984,8.367,5.219,8.367,10.209C160.103,309.745,155.332,314.309,149.696,314.309z"/>
	</g>
	<path style="fill:#FAB941;" d="M356.362,384.015c-3.708-21.677-22.577-38.18-45.312-38.18c-22.735,0-41.603,16.503-45.312,38.18   H356.362z"/>
	<path style="fill:#FAB941;" d="M265.738,397.626c3.709,21.677,22.577,38.18,45.312,38.18c22.735,0,41.603-16.503,45.312-38.18   H265.738z"/>
	<g>
		<path style="fill:#F6A221;" d="M313.709,345.92c-0.881-0.05-1.766-0.085-2.66-0.085c-22.735,0-41.603,16.503-45.312,38.18h49.652    C290.843,384.015,289.636,347.45,313.709,345.92z"/>
	</g>
	<g>
		<path style="fill:#F6A221;" d="M315.39,397.626h-49.652c3.709,21.677,22.577,38.18,45.312,38.18c0.893,0,1.779-0.034,2.659-0.085    C289.636,434.191,290.843,397.626,315.39,397.626z"/>
	</g>
	<path style="fill:#FAD964;" d="M365.226,390.821c0-4.311-3.494-7.805-7.805-7.805h-92.742c-4.311,0-7.805,3.495-7.805,7.805   c0,4.311,3.494,7.805,7.805,7.805h92.742C361.732,398.626,365.226,395.131,365.226,390.821z"/>
	<path style="fill:#FAB941;" d="M301.04,390.821c0-4.311,3.494-7.805,7.805-7.805h-44.167c-4.311,0-7.805,3.495-7.805,7.805   c0,4.311,3.494,7.805,7.805,7.805h44.167C304.534,398.626,301.04,395.131,301.04,390.821z"/>
	<g>
		<path style="fill:#2BB381;" d="M311.46,248.973c-16.694-0.125-33.436,7.369-44.346,22.504c-2.52,3.497-1.73,8.375,1.767,10.896    c3.498,2.521,8.375,1.729,10.896-1.767c7.681-10.654,19.424-15.995,31.178-16.024C304.025,261.492,304.392,251.588,311.46,248.973    z"/>
	</g>
</g>















</svg>
